<svg xmlns="http://www.w3.org/2000/svg" viewBox="0 0 1440 320"><path fill="#4154f1" fill-opacity="1" d="M0,224L26.7,213.3C53.3,203,107,181,160,149.3C213.3,117,267,75,320,90.7C373.3,107,427,181,480,192C533.3,203,587,149,640,128C693.3,107,747,117,800,138.7C853.3,160,907,192,960,202.7C1013.3,213,1067,203,1120,176C1173.3,149,1227,107,1280,122.7C1333.3,139,1387,213,1413,250.7L1440,288L1440,320L1413.3,320C1386.7,320,1333,320,1280,320C1226.7,320,1173,320,1120,320C1066.7,320,1013,320,960,320C906.7,320,853,320,800,320C746.7,320,693,320,640,320C586.7,320,533,320,480,320C426.7,320,373,320,320,320C266.7,320,213,320,160,320C106.7,320,53,320,27,320L0,320Z"></path></svg>